<svg width="100" height="100" viewBox="0 0 100 100" fill="none" xmlns="http://www.w3.org/2000/svg">
<rect width="100" height="100" fill="#F3F9FB"/>
<g clip-path="url(#clip0_427_4531)">
<path d="M50 54C52.2091 54 54 52.2091 54 50C54 47.7909 52.2091 46 50 46C47.7909 46 46 47.7909 46 50C46 52.2091 47.7909 54 50 54Z" fill="#82C3E1"/>
<path d="M46.25 37.5L43.9625 40H40C38.625 40 37.5 41.125 37.5 42.5V57.5C37.5 58.875 38.625 60 40 60H60C61.375 60 62.5 58.875 62.5 57.5V42.5C62.5 41.125 61.375 40 60 40H56.0375L53.75 37.5H46.25ZM50 56.25C46.55 56.25 43.75 53.45 43.75 50C43.75 46.55 46.55 43.75 50 43.75C53.45 43.75 56.25 46.55 56.25 50C56.25 53.45 53.45 56.25 50 56.25Z" fill="#82C3E1"/>
</g>
<defs>
<clipPath id="clip0_427_4531">
<rect width="30" height="30" fill="white" transform="translate(35 35)"/>
</clipPath>
</defs>
</svg>
