<svg width="25" height="25" viewBox="0 0 25 25" fill="none" xmlns="http://www.w3.org/2000/svg">
<g clip-path="url(#clip0_698_2085)">
<path d="M12.5001 0C19.4036 0 25 5.59639 25 12.4999C25 19.4035 19.4036 25.0001 12.5001 25.0001C5.59654 25.0001 -7.47045e-05 19.4035 -7.47045e-05 12.4999C0.00770731 5.59959 5.59952 0.00778195 12.5001 0ZM12.5001 23.7499C18.7133 23.7499 23.7501 18.7131 23.7501 12.4999C23.7501 6.2867 18.7133 1.24992 12.5001 1.24992C6.28685 1.24992 1.25008 6.2867 1.25008 12.4999C1.25717 18.7102 6.28983 23.7428 12.5001 23.7499Z" fill="#82C3E1"/>
<path d="M13.9635 7.65453C14.2235 7.42725 14.6183 7.4538 14.8456 7.71358C15.0726 7.97359 15.0461 8.36841 14.7863 8.59569L10.324 12.5L14.7865 16.4045C15.0466 16.6317 15.0729 17.0266 14.8458 17.2863C14.6185 17.5463 14.2237 17.5729 13.9637 17.3456L8.96379 12.9705C8.82807 12.852 8.75025 12.6803 8.75025 12.5C8.75025 12.3196 8.82807 12.1482 8.96379 12.0294L13.9635 7.65453Z" fill="#82C3E1"/>
</g>
<defs>
<clipPath id="clip0_698_2085">
<rect width="25" height="25" fill="white" transform="matrix(-1 0 0 1 25 0)"/>
</clipPath>
</defs>
</svg>
