<svg width="25" height="25" viewBox="0 0 25 25" fill="none" xmlns="http://www.w3.org/2000/svg">
<g clip-path="url(#clip0_689_1717)">
<path d="M12.4999 0C5.59639 0 0 5.59639 0 12.4999C0 19.4035 5.59639 25.0001 12.4999 25.0001C19.4035 25.0001 25.0001 19.4035 25.0001 12.4999C24.9923 5.59959 19.4005 0.00778195 12.4999 0ZM12.4999 23.7499C6.2867 23.7499 1.24992 18.7131 1.24992 12.4999C1.24992 6.2867 6.2867 1.24992 12.4999 1.24992C18.7131 1.24992 23.7499 6.2867 23.7499 12.4999C23.7428 18.7102 18.7102 23.7428 12.4999 23.7499Z" fill="#82C3E1"/>
<path d="M11.0365 7.65453C10.7765 7.42725 10.3817 7.4538 10.1544 7.71358C9.92735 7.97359 9.9539 8.36841 10.2137 8.59569L14.676 12.5L10.2135 16.4045C9.95344 16.6317 9.92712 17.0266 10.1542 17.2863C10.3815 17.5463 10.7763 17.5729 11.0363 17.3456L16.0362 12.9705C16.1719 12.852 16.2498 12.6803 16.2498 12.5C16.2498 12.3196 16.1719 12.1482 16.0362 12.0294L11.0365 7.65453Z" fill="#82C3E1"/>
</g>
<defs>
<clipPath id="clip0_689_1717">
<rect width="25" height="25" fill="white"/>
</clipPath>
</defs>
</svg>
