<svg width="63" height="5" viewBox="0 0 63 5" fill="none" xmlns="http://www.w3.org/2000/svg">
<path d="M0.637451 2.88121C0.637451 1.82849 1.49085 0.975098 2.54356 0.975098H61.0552C62.1079 0.975098 62.9613 1.82849 62.9613 2.88121C62.9613 3.93392 62.1079 4.78731 61.0552 4.78731H2.54356C1.49084 4.78731 0.637451 3.93392 0.637451 2.88121Z" fill="#EFF0F7"/>
<path d="M0.637451 2.88121C0.637451 1.82849 1.49085 0.975098 2.54356 0.975098L28.7313 0.97525C29.784 0.97525 30.6374 1.82864 30.6374 2.88136C30.6374 3.93407 29.784 4.78747 28.7313 4.78747L2.54356 4.78731C1.49084 4.78731 0.637451 3.93392 0.637451 2.88121Z" fill="#FF5A8B"/>
</svg>
