<svg width="30" height="30" viewBox="0 0 30 30" fill="none" xmlns="http://www.w3.org/2000/svg">
<rect width="30" height="30" rx="15" fill="url(#paint0_linear_383_1687)"/>
<path d="M12.0542 14.4109C12.9983 13.4667 14.645 13.4667 15.5892 14.4109L16.1783 15.0001L17.3567 13.8217L16.7675 13.2326C15.9817 12.4459 14.935 12.0117 13.8217 12.0117C12.7083 12.0117 11.6617 12.4459 10.8758 13.2326L9.1075 15.0001C8.32774 15.7823 7.88989 16.8418 7.88989 17.9463C7.88989 19.0508 8.32774 20.1103 9.1075 20.8926C9.49406 21.2797 9.95331 21.5866 10.4588 21.7957C10.9644 22.0047 11.5063 22.1119 12.0533 22.1109C12.6005 22.112 13.1426 22.005 13.6483 21.7959C14.154 21.5868 14.6134 21.2798 15 20.8926L15.5892 20.3034L14.4108 19.1251L13.8217 19.7142C13.3521 20.1817 12.7164 20.4442 12.0537 20.4442C11.3911 20.4442 10.7554 20.1817 10.2858 19.7142C9.81792 19.2448 9.55517 18.6091 9.55517 17.9463C9.55517 17.2835 9.81792 16.6478 10.2858 16.1784L12.0542 14.4109Z" fill="white"/>
<path d="M15 9.10745L14.4108 9.69662L15.5891 10.875L16.1783 10.2858C16.6479 9.81828 17.2836 9.55581 17.9462 9.55581C18.6089 9.55581 19.2445 9.81828 19.7141 10.2858C20.1821 10.7552 20.4448 11.3909 20.4448 12.0537C20.4448 12.7165 20.1821 13.3522 19.7141 13.8216L17.9458 15.5891C17.0016 16.5333 15.355 16.5333 14.4108 15.5891L13.8216 15L12.6433 16.1783L13.2325 16.7675C14.0183 17.5541 15.065 17.9883 16.1783 17.9883C17.2916 17.9883 18.3383 17.5541 19.1241 16.7675L20.8925 15C21.6722 14.2177 22.1101 13.1582 22.1101 12.0537C22.1101 10.9492 21.6722 9.88972 20.8925 9.10745C20.1104 8.32729 19.0509 7.88916 17.9462 7.88916C16.8416 7.88916 15.782 8.32729 15 9.10745Z" fill="white"/>
<defs>
<linearGradient id="paint0_linear_383_1687" x1="5.4" y1="30" x2="26.6578" y2="1.30204" gradientUnits="userSpaceOnUse">
<stop stop-color="#75DABC"/>
<stop offset="1" stop-color="#1FEFF1"/>
</linearGradient>
</defs>
</svg>
