<svg width="344" height="166" viewBox="0 0 344 166" fill="none" xmlns="http://www.w3.org/2000/svg">
<rect x="0.5" y="0.5" width="343" height="165" rx="10.5" fill="#82C3E1" fill-opacity="0.05"/>
<path d="M189.695 90.0312C190.68 90.0312 191.453 89.2577 191.453 88.2734V86.0586L182.664 67.1797L167.485 70.9745C168.19 69.879 168.602 68.5769 168.602 67.1797C168.602 63.3018 165.446 60.1484 161.57 60.1484C157.694 60.1484 154.539 63.3018 154.539 67.1797C154.539 69.8103 155.992 72.1061 158.136 73.3118L154.539 74.2109L142.351 97.0977C143.055 99.1366 144.988 100.578 147.273 100.578H179.148C180.133 100.578 180.906 99.8046 180.906 98.8203C180.906 93.9688 184.844 90.0312 189.695 90.0312ZM195.683 96.3467L192.294 92.9718C191.654 92.1726 190.626 91.7994 189.695 91.7994C188.607 91.7994 187.598 92.333 187.223 92.8311L183.742 96.3141C182.276 97.6996 182.356 100.021 183.677 101.261C184.322 101.945 185.236 102.336 186.18 102.336C186.18 104.307 187.725 105.852 189.695 105.852C191.666 105.852 193.211 104.307 193.211 102.336C194.189 102.336 195.116 101.931 195.649 101.327C197.093 99.9618 197.065 97.6528 195.683 96.3467Z" fill="url(#paint0_linear_368_2435)"/>
<g opacity="0.8">
<path d="M180.521 72.4093L191.453 86.0586V60.1484C191.453 57.236 189.092 54.875 186.18 54.875H147.273C144.361 54.875 142 57.236 142 60.1484V95.3047C142 95.9375 142.106 96.535 142.351 97.0977L156.682 79.4451C157.386 78.5643 158.724 78.5637 159.428 79.4439L164.416 85.6788C165.12 86.5584 166.458 86.5584 167.162 85.6788L177.777 72.4101C178.48 71.5307 179.817 71.5304 180.521 72.4093ZM161.57 72.4531C158.652 72.4531 156.297 70.0975 156.297 67.1797C156.297 64.2616 158.652 61.9062 161.57 61.9062C164.488 61.9062 166.844 64.2616 166.844 67.1797C166.844 70.0975 164.488 72.4531 161.57 72.4531ZM189.695 86.5156C182.91 86.5156 177.391 92.0352 177.391 98.8203C177.391 105.605 182.91 111.125 189.695 111.125C196.48 111.125 202 105.605 202 98.8203C202 92.0352 196.48 86.5156 189.695 86.5156ZM194.441 100.051C193.809 100.754 192.613 100.754 191.98 100.051L191.453 99.5585V102.336C191.453 103.32 190.68 104.094 189.695 104.094C188.711 104.094 187.937 103.32 187.937 102.336V99.5585L187.41 100.051C186.742 100.754 185.617 100.754 184.949 100.051C184.246 99.3827 184.246 98.2577 184.949 97.5897L188.465 94.0741C188.988 93.42 190.355 93.3608 190.926 94.0741L194.441 97.5897C195.145 98.2577 195.145 99.3827 194.441 100.051Z" fill="url(#paint1_linear_368_2435)"/>
</g>
<rect x="0.5" y="0.5" width="343" height="165" rx="10.5" stroke="#82C3E1" stroke-dasharray="2 2"/>
<defs>
<linearGradient id="paint0_linear_368_2435" x1="169.539" y1="105.852" x2="169.539" y2="60.1484" gradientUnits="userSpaceOnUse">
<stop stop-color="#DAEEF8"/>
<stop offset="1" stop-color="#D9F4FA"/>
</linearGradient>
<linearGradient id="paint1_linear_368_2435" x1="152.8" y1="111.125" x2="191.842" y2="54.9043" gradientUnits="userSpaceOnUse">
<stop stop-color="#75DABC"/>
<stop offset="1" stop-color="#1FEFF1"/>
</linearGradient>
</defs>
</svg>
