<svg width="26" height="25" viewBox="0 0 26 25" fill="none" xmlns="http://www.w3.org/2000/svg">
<g id="Interface essential/Bell">
<path id="Icon" fill-rule="evenodd" clip-rule="evenodd" d="M21.7568 14.5522C21.7598 15.1576 22.026 15.7317 22.486 16.1252C24.0589 17.5314 22.9443 19.9377 20.7152 19.9377H16.7568C16.2438 21.338 14.9149 22.2724 13.4235 22.2814C11.9273 22.2878 10.5904 21.3478 10.0902 19.9377H6.13184C3.90268 19.9377 2.78809 17.5314 4.36101 16.1252C4.82104 15.7317 5.08718 15.1576 5.09018 14.5522V9.521C5.09018 5.41683 8.81934 2.0835 13.4235 2.0835C18.0277 2.0835 21.7568 5.41683 21.7568 9.521V14.5522ZM11.8402 19.9377C12.2192 20.4283 12.8035 20.7166 13.4235 20.7189C14.0288 20.7039 14.5952 20.417 14.9652 19.9377H11.8402Z" fill="#1BA15B"/>
</g>
</svg>
