<svg width="25" height="25" viewBox="0 0 25 25" fill="none" xmlns="http://www.w3.org/2000/svg">
<g id="Interface essential/Bell">
<path id="Icon" fill-rule="evenodd" clip-rule="evenodd" d="M21.986 16.125C21.5232 15.7292 21.2568 15.1507 21.2568 14.5417V9.52087C21.2568 5.40629 17.5277 2.08337 12.9235 2.08337C8.31934 2.08337 4.59018 5.40629 4.59018 9.52087V14.5417C4.59022 15.1507 4.3238 15.7292 3.86101 16.125C2.28809 17.5313 3.40268 19.9271 5.63184 19.9271H9.59018C10.0952 21.3338 11.4289 22.272 12.9235 22.272C14.4181 22.272 15.7518 21.3338 16.2568 19.9271H20.2152C22.4443 19.9271 23.5589 17.5313 21.986 16.125ZM12.9235 20.7084C12.3035 20.706 11.7192 20.4178 11.3402 19.9271H14.4652C14.0981 20.41 13.53 20.6979 12.9235 20.7084ZM20.2256 18.3646C20.6043 18.3989 20.9649 18.1958 21.1318 17.8542C21.2129 17.6484 21.1391 17.4139 20.9548 17.2917C20.1699 16.5916 19.7162 15.5934 19.7048 14.5417V9.52087C19.7048 6.28129 16.6631 3.64587 12.9339 3.64587C9.20476 3.64587 6.16309 6.28129 6.16309 9.52087V14.5417C6.15167 15.5934 5.69793 16.5916 4.91309 17.2917C4.72488 17.4108 4.64651 17.646 4.72559 17.8542C4.89257 18.1958 5.25313 18.3989 5.63184 18.3646H20.2256Z" fill="#ABB0BF"/>
</g>
</svg>
