<svg width="26" height="25" viewBox="0 0 26 25" fill="none" xmlns="http://www.w3.org/2000/svg">
<g id="Comercial/shopping-basket">
<g id="Icon">
<path d="M23.6 15.8336L24.35 10.0836L24.3 10.028C24.4665 8.76258 24.1312 7.47909 23.3808 6.50942C22.6303 5.53974 21.5385 4.97909 20.3875 4.97244H7.35L7.0875 4.01411C6.58758 2.16889 5.07156 0.894309 3.3375 0.861328H2.0875C1.56973 0.861328 1.15 1.3277 1.15 1.90299C1.15 2.47829 1.56973 2.94466 2.0875 2.94466H3.3375C4.26622 2.94464 5.08465 3.62244 5.35 4.61133L8.5125 16.4586C9.02279 18.3253 10.5691 19.6041 12.325 19.6113H19.6625C21.6334 19.6019 23.3044 17.9987 23.6 15.8336Z" fill="#1BA15B"/>
<path d="M12.0375 21.3613C11.3471 21.3613 10.7875 21.9832 10.7875 22.7502C10.7875 23.5173 11.3471 24.1391 12.0375 24.1391C12.7278 24.1391 13.2875 23.5173 13.2875 22.7502C13.2875 21.9832 12.7278 21.3613 12.0375 21.3613Z" fill="#1BA15B"/>
<path d="M19.5375 21.3613C18.8471 21.3613 18.2875 21.9832 18.2875 22.7502C18.2875 23.5173 18.8471 24.1391 19.5375 24.1391C20.2278 24.1391 20.7875 23.5173 20.7875 22.7502C20.7875 21.9832 20.2278 21.3613 19.5375 21.3613Z" fill="#1BA15B"/>
</g>
</g>
</svg>
