<svg width="26" height="25" viewBox="0 0 26 25" fill="none" xmlns="http://www.w3.org/2000/svg">
<g id="Comercial/shopping-basket">
<g id="Icon">
<path fill-rule="evenodd" clip-rule="evenodd" d="M2.5875 0.367676H3.8375L3.9 0.382382C5.6327 0.421923 7.14667 1.76965 7.65 3.72062L7.9 4.73532H20.9375C22.0888 4.74149 23.182 5.33096 23.9375 6.35297C24.6909 7.38146 25.0243 8.74613 24.85 10.0883L24.1 16.1765C23.8502 18.5102 22.1742 20.2685 20.175 20.2941H12.825C11.0691 20.2865 9.52279 18.9325 9.0125 16.9559L5.85 4.41179C5.60783 3.33559 4.78376 2.58287 3.8375 2.57356H2.5875C2.06973 2.57356 1.65 2.07975 1.65 1.47062C1.65 0.861479 2.06973 0.367676 2.5875 0.367676ZM10.8125 16.25C11.0778 17.2971 11.8963 18.0148 12.825 18.0147H20.175C21.2096 18.0015 22.0857 17.1136 22.25 15.9118L23 9.80885C23.1021 9.09846 22.9356 8.37101 22.544 7.81706C22.1525 7.2631 21.5748 6.93785 20.9625 6.9265H8.4625L10.8125 16.25Z" fill="#ABB0BF"/>
<path d="M12.5375 22.0589C11.8471 22.0589 11.2875 22.7173 11.2875 23.5294C11.2875 24.3416 11.8471 25 12.5375 25C13.2279 25 13.7875 24.3416 13.7875 23.5294C13.7875 22.7173 13.2279 22.0589 12.5375 22.0589Z" fill="#ABB0BF"/>
<path d="M20.0375 22.0589C19.3471 22.0589 18.7875 22.7173 18.7875 23.5294C18.7875 24.3416 19.3471 25 20.0375 25C20.7279 25 21.2875 24.3416 21.2875 23.5294C21.2875 22.7173 20.7279 22.0589 20.0375 22.0589Z" fill="#ABB0BF"/>
</g>
</g>
</svg>
