<svg width="30" height="30" viewBox="0 0 30 30" fill="none" xmlns="http://www.w3.org/2000/svg">
<g id="Heart">
<path id="Heart_2" d="M14.9992 26.0294C14.5364 26.0294 14.0947 25.8848 13.7213 25.611C11.1867 23.7568 5.12863 19.1444 3.60887 16.3502C1.62108 12.6985 2.8148 8.00872 6.26451 5.89623C7.37935 5.21445 8.64144 4.85291 9.92456 4.85291C11.844 4.85291 13.6477 5.62765 14.9992 7.00671C16.3507 5.62765 18.1544 4.85291 20.0739 4.85291C21.357 4.85291 22.6191 5.21445 23.7339 5.89623C27.1836 8.00872 28.3773 12.6985 26.3948 16.3502C24.875 19.1444 18.817 23.7568 16.2823 25.611C15.9037 25.8848 15.462 26.0294 14.9992 26.0294Z" fill="#FF5A8B"/>
</g>
</svg>
