<svg width="26" height="25" viewBox="0 0 26 25" fill="none" xmlns="http://www.w3.org/2000/svg">
<g id="Interface essential/Heart">
<path id="Icon" d="M23.7708 9.47917C23.6666 5.9375 20.8541 3.125 17.3124 3.125C16.1666 3.125 14.3958 3.95833 13.6666 5.3125C13.5624 5.625 13.1458 5.625 13.0416 5.3125C12.2083 4.0625 10.5416 3.22917 9.29158 3.22917C5.85408 3.22917 2.93742 6.04167 2.83325 9.47917V9.6875C2.83325 11.4583 3.56242 13.125 4.81242 14.375C4.81242 14.375 4.81242 14.375 4.81242 14.4792C4.91659 14.5833 9.91659 18.9583 12.2083 20.9375C12.8333 21.4583 13.7708 21.4583 14.3958 20.9375C16.6874 18.9583 21.5833 14.5833 21.7916 14.4792C21.7916 14.4792 21.7916 14.4792 21.7916 14.375C23.0416 13.2292 23.7708 11.5625 23.7708 9.6875V9.47917Z" fill="#1BA15B"/>
</g>
</svg>
