<svg width="26" height="25" viewBox="0 0 26 25" fill="none" xmlns="http://www.w3.org/2000/svg">
<g id="Interface essential/Heart">
<path id="Icon" d="M12.8542 21.6667C12.3333 21.6667 11.7083 21.4583 11.2917 21.0417C4.52083 15.1042 4.41666 15 4.41666 14.8958L4.31249 14.7917C3.06249 13.5417 2.33333 11.7708 2.33333 10V9.79167C2.43749 6.04167 5.45833 3.125 9.20833 3.125C10.3542 3.125 11.9167 3.75 12.8542 5C13.7917 3.75 15.4583 3.125 16.6042 3.125C20.3542 3.125 23.2708 6.04167 23.4792 9.79167V10C23.4792 11.875 22.75 13.5417 21.5 14.8958L21.3958 15C21.2917 15.1042 20.4583 15.8333 14.5208 21.1458C14 21.4583 13.4792 21.6667 12.8542 21.6667ZM5.97916 14.5833C6.39583 15 8.47916 16.4583 12.3333 19.7917C12.6458 20.1042 13.0625 20.1042 13.375 19.7917C17.3333 16.25 19.625 14.2708 20.1458 13.8542L20.25 13.75C21.2917 12.7083 21.8125 11.3542 21.8125 10V9.79167C21.7083 6.875 19.4167 4.6875 16.5 4.6875C15.7708 4.6875 14.3125 5.20833 13.7917 6.35417C13.5833 6.77083 13.1667 6.97917 12.75 6.97917C12.3333 6.97917 11.9167 6.77083 11.7083 6.35417C11.1875 5.3125 9.83333 4.6875 8.99999 4.6875C6.18749 4.6875 3.79166 6.97917 3.68749 9.79167V10.1042C3.68749 11.4583 4.31249 12.8125 5.24999 13.75L5.97916 14.5833Z" fill="#ABB0BF"/>
</g>
</svg>
