<svg width="30" height="30" viewBox="0 0 30 30" fill="none" xmlns="http://www.w3.org/2000/svg">
<g id="Heart">
<path id="Heart_2" d="M14.9992 26.0295C14.5364 26.0295 14.0947 25.8849 13.7213 25.6111C11.1866 23.7569 5.12862 19.1446 3.60886 16.3503C1.62107 12.6987 2.8148 8.00884 6.2645 5.89636C7.37935 5.21458 8.64143 4.85303 9.92456 4.85303C11.844 4.85303 13.6477 5.62778 14.9992 7.00683C16.3507 5.62778 18.1544 4.85303 20.0738 4.85303C21.357 4.85303 22.6191 5.21458 23.7339 5.89636C27.1836 8.00884 28.3773 12.6987 26.3948 16.3503C24.875 19.1446 18.817 23.7569 16.2823 25.6111C15.9037 25.8849 15.462 26.0295 14.9992 26.0295ZM9.92456 6.40252C8.93592 6.40252 7.96306 6.68143 7.10064 7.20826C4.33982 8.90238 3.39325 12.6728 4.99716 15.6169C6.40649 18.2097 12.7485 22.9718 14.6574 24.3664C14.8572 24.511 15.1359 24.511 15.3358 24.3664C17.2447 22.9667 23.5867 18.2045 24.996 15.6169C26.5999 12.6728 25.6533 8.89722 22.8925 7.20826C22.0353 6.68143 21.0625 6.40252 20.0738 6.40252C18.3437 6.40252 16.7241 7.22892 15.6302 8.66479L14.9992 9.50152L14.3682 8.66479C13.2743 7.22892 11.6599 6.40252 9.92456 6.40252Z" fill="#FF5A8B"/>
</g>
</svg>
