<svg width="26" height="25" viewBox="0 0 26 25" fill="none" xmlns="http://www.w3.org/2000/svg">
<g id="Interface essential/Home">
<path id="Icon" fill-rule="evenodd" clip-rule="evenodd" d="M21.6354 7.29221L15.8438 3.01096C14.1496 1.77418 11.8504 1.77418 10.1563 3.01096L4.375 7.29221C3.25567 8.0986 2.58969 9.39184 2.58334 10.7714V18.511C2.64586 21.0039 4.71526 22.9755 7.20834 22.9172H18.7917C21.2847 22.9755 23.3541 21.0039 23.4167 18.511V10.761C23.4077 9.38738 22.7465 8.0998 21.6354 7.29221ZM21.8542 18.511C21.792 20.1411 20.422 21.4133 18.7917 21.3547H7.20834C5.58019 21.4076 4.21357 20.1386 4.14584 18.511V10.7714C4.15139 9.88587 4.58143 9.0568 5.30209 8.54221L11.0833 4.27138C12.2251 3.4376 13.7749 3.4376 14.9167 4.27138L20.6979 8.55263C21.418 9.05828 21.8488 9.88112 21.8542 10.761V18.511ZM8.3125 16.4068H17.6875C18.119 16.4068 18.4688 16.7566 18.4688 17.188C18.4688 17.6195 18.119 17.9693 17.6875 17.9693H8.3125C7.88103 17.9693 7.53125 17.6195 7.53125 17.188C7.53125 16.7566 7.88103 16.4068 8.3125 16.4068Z" fill="#ABB0BF"/>
</g>
</svg>
