<svg width="26" height="25" viewBox="0 0 26 25" fill="none" xmlns="http://www.w3.org/2000/svg">
<g id="Interface essential/Home">
<path id="Icon" fill-rule="evenodd" clip-rule="evenodd" d="M15.5559 3.96166L20.7664 7.81035C21.7706 8.53709 22.3681 9.69908 22.375 10.9386V17.9057C22.3105 20.1398 20.4548 21.9029 18.2204 21.8531H7.78947C5.55125 21.9084 3.68953 20.1437 3.625 17.9057V10.9386C3.63187 9.69908 4.22936 8.53709 5.23355 7.81035L10.4441 3.96166C11.9654 2.84611 14.0346 2.84611 15.5559 3.96166ZM8.55921 17.6788H17.4408C17.8496 17.6788 18.1809 17.3474 18.1809 16.9386C18.1809 16.5299 17.8496 16.1985 17.4408 16.1985H8.55921C8.15045 16.1985 7.81908 16.5299 7.81908 16.9386C7.81908 17.3474 8.15045 17.6788 8.55921 17.6788Z" fill="#1BA15B"/>
</g>
</svg>
