<svg width="22" height="14" viewBox="0 0 22 14" fill="none" xmlns="http://www.w3.org/2000/svg">
<g id="Layer_1" clip-path="url(#clip0_284_5471)">
<path id="Vector" fill-rule="evenodd" clip-rule="evenodd" d="M1.4435 8H2.5565C2.95504 8 3.3147 8.14955 3.57716 8.39426C3.83961 8.63897 4 8.97432 4 9.34592V12.6541C4 13.0257 3.83961 13.361 3.57716 13.6057C3.3147 13.8505 2.95504 14 2.5565 14H1.4435C1.04496 14 0.685298 13.8505 0.422843 13.6057C0.160389 13.361 0 13.0257 0 12.6541V9.34592C0 8.97432 0.160389 8.63897 0.422843 8.39426C0.685298 8.14955 1.04496 8 1.4435 8Z" fill="#F9A826"/>
<path id="Vector_2" fill-rule="evenodd" clip-rule="evenodd" d="M7.4435 4H8.5565C8.95504 4 9.3147 4.14719 9.57716 4.38805C9.83961 4.6289 10 4.95897 10 5.32471V12.6753C10 13.041 9.83961 13.3711 9.57716 13.612C9.3147 13.8528 8.95504 14 8.5565 14H7.4435C7.04496 14 6.6853 13.8528 6.42284 13.612C6.16039 13.3711 6 13.041 6 12.6753V5.32471C6 4.95897 6.16039 4.6289 6.42284 4.38805C6.6853 4.14719 7.04496 4 7.4435 4Z" fill="#F9A826"/>
<path id="Vector_3" fill-rule="evenodd" clip-rule="evenodd" d="M13.4435 6H14.5565C14.955 6 15.3147 6.13924 15.5772 6.36709C15.8396 6.59494 16 6.90717 16 7.25316V12.7468C16 13.0928 15.8396 13.4051 15.5772 13.6329C15.3147 13.8608 14.955 14 14.5565 14H13.4435C13.045 14 12.6853 13.8608 12.4228 13.6329C12.1604 13.4051 12 13.0928 12 12.7468V7.25316C12 6.90717 12.1604 6.59494 12.4228 6.36709C12.6853 6.13924 13.045 6 13.4435 6Z" fill="#F9A826"/>
<path id="Vector_4" fill-rule="evenodd" clip-rule="evenodd" d="M19.4435 0H20.5565C20.955 0 21.3147 0.14908 21.5772 0.39303C21.8396 0.63698 22 0.971281 22 1.34172V12.6583C22 13.0287 21.8396 13.363 21.5772 13.607C21.3147 13.8509 20.955 14 20.5565 14H19.4435C19.045 14 18.6853 13.8509 18.4228 13.607C18.1604 13.363 18 13.0287 18 12.6583V1.34172C18 0.971281 18.1604 0.63698 18.4228 0.39303C18.6853 0.14908 19.045 0 19.4435 0Z" fill="#F9A826"/>
</g>
<defs>
<clipPath id="clip0_284_5471">
<rect width="22" height="14" fill="white"/>
</clipPath>
</defs>
</svg>
