<svg width="25" height="25" viewBox="0 0 25 25" fill="none" xmlns="http://www.w3.org/2000/svg">
<g id="User/Person">
<g id="Icon">
<path d="M17.3333 22.9167H7.66662C6.61368 22.8784 5.63284 22.372 4.99198 21.5356C4.35113 20.6993 4.11721 19.6205 4.35412 18.5938L4.60412 17.4063C4.89166 15.7988 6.27352 14.6174 7.90621 14.5834H17.0937C18.7264 14.6174 20.1083 15.7988 20.3958 17.4063L20.6458 18.5938C20.8827 19.6205 20.6488 20.6993 20.0079 21.5356C19.3671 22.372 18.3862 22.8784 17.3333 22.9167Z" fill="#1BA15B"/>
<path d="M13.0208 12.5001H11.9791C9.67794 12.5001 7.81246 10.6346 7.81246 8.33339V5.58339C7.80968 4.65428 8.17754 3.76243 8.83452 3.10545C9.4915 2.44847 10.3833 2.08061 11.3125 2.08339H13.6875C14.6166 2.08061 15.5084 2.44847 16.1654 3.10545C16.8224 3.76243 17.1902 4.65428 17.1875 5.58339V8.33339C17.1875 9.43846 16.7485 10.4983 15.9671 11.2797C15.1857 12.0611 14.1259 12.5001 13.0208 12.5001Z" fill="#1BA15B"/>
</g>
</g>
</svg>
