<svg width="25" height="26" viewBox="0 0 25 26" fill="none" xmlns="http://www.w3.org/2000/svg">
<g id="send 1">
<path id="Vector" d="M22.3359 11.3047L4.08594 3.49224C3.81092 3.37265 3.51041 3.3236 3.21165 3.34952C2.91288 3.37544 2.62531 3.47551 2.375 3.64068C2.12562 3.80725 1.92105 4.03264 1.77936 4.29696C1.63766 4.56128 1.56319 4.8564 1.5625 5.1563V9.99224C1.56412 10.431 1.72502 10.8543 2.01529 11.1834C2.30557 11.5125 2.70546 11.7249 3.14062 11.7813L12.0625 12.961L3.14062 14.1172C2.7048 14.1754 2.30479 14.3894 2.01465 14.7198C1.7245 15.0501 1.56388 15.4744 1.5625 15.9141V20.8438C1.56514 21.1432 1.64147 21.4374 1.78477 21.7003C1.92806 21.9632 2.1339 22.1868 2.3841 22.3512C2.6343 22.5157 2.92116 22.6161 3.21934 22.6434C3.51751 22.6707 3.81783 22.6241 4.09375 22.5079L22.3437 14.6329C22.6656 14.4893 22.9388 14.2554 23.1302 13.9595C23.3217 13.6637 23.4231 13.3186 23.4223 12.9663C23.4215 12.6139 23.3184 12.2693 23.1255 11.9744C22.9327 11.6794 22.6584 11.4468 22.3359 11.3047Z" fill="#82C3E1"/>
</g>
</svg>
