<svg width="56" height="33" viewBox="0 0 56 33" fill="none" xmlns="http://www.w3.org/2000/svg">
<rect x="0.422485" y="0.0258789" width="54.6357" height="32.6357" rx="8" fill="#1BA25B"/>
<path d="M17.5025 22.5437V18.4837H13.5425V16.7237H17.5025V12.7838H19.3425V16.7237H23.3025V18.4837H19.3425V22.5437H17.5025Z" fill="white"/>
<path d="M37.6862 23.6218C38.3561 23.6218 38.8992 23.0787 38.8992 22.4088C38.8992 21.7389 38.3561 21.1958 37.6862 21.1958C37.0163 21.1958 36.4732 21.7389 36.4732 22.4088C36.4732 23.0787 37.0163 23.6218 37.6862 23.6218Z" fill="#FBFDFF"/>
<path d="M32.141 23.6218C32.8109 23.6218 33.354 23.0787 33.354 22.4088C33.354 21.7389 32.8109 21.1958 32.141 21.1958C31.4711 21.1958 30.928 21.7389 30.928 22.4088C30.928 23.0787 31.4711 23.6218 32.141 23.6218Z" fill="#FBFDFF"/>
<path d="M29.7773 10.7569L29.6387 12.4551C29.611 12.7809 29.8675 13.0512 30.1932 13.0512H40.8054C41.0965 13.0512 41.3391 12.8294 41.3599 12.5383C41.45 11.3114 40.5143 10.3133 39.2874 10.3133H30.7686C30.6992 10.0083 30.5606 9.71719 30.3457 9.47458C29.9992 9.10721 29.5139 8.89233 29.0149 8.89233H27.8088C27.5246 8.89233 27.2889 9.12801 27.2889 9.4122C27.2889 9.69639 27.5246 9.93206 27.8088 9.93206H29.0149C29.2298 9.93206 29.4308 10.0222 29.5763 10.1747C29.7219 10.3341 29.7912 10.542 29.7773 10.7569Z" fill="#FBFDFF"/>
<path d="M40.639 14.0911H30.0061C29.715 14.0911 29.4793 14.3129 29.4516 14.5971L29.202 17.6123C29.105 18.7976 30.0338 19.8096 31.2191 19.8096H38.927C39.9667 19.8096 40.8816 18.957 40.9579 17.9173L41.1866 14.6802C41.2144 14.3614 40.9648 14.0911 40.639 14.0911Z" fill="#FBFDFF"/>
</svg>
