<svg width="43" height="43" viewBox="0 0 43 43" fill="none" xmlns="http://www.w3.org/2000/svg">
<g clip-path="url(#clip0_208_187)">
<path d="M42.2394 9.04991C41.9988 8.8092 41.6086 8.80928 41.368 9.04991L37.545 12.8729C36.9148 13.5031 36.077 13.8501 35.1858 13.8501C34.3241 13.8501 33.5127 13.5247 32.8902 12.9334C32.9556 12.8727 33.0165 12.8143 33.0718 12.7591C34.1448 11.6861 34.7433 10.2664 34.7572 8.76129C34.7711 7.252 34.1958 5.8378 33.1373 4.77929C30.9555 2.59736 27.3757 2.62676 25.1576 4.8448C24.9636 5.03884 24.7338 5.29764 24.479 5.60865C23.3676 5.13359 22.161 4.88362 20.9159 4.88362H20.8595C15.8611 4.88362 11.7946 8.95012 11.7946 13.9486C11.7946 16.3699 12.7375 18.6463 14.4497 20.3584C15.1241 21.0329 16.0491 21.9575 17.0615 22.9695L2.37565 35.541L13.6167 22.4094C13.838 22.1509 13.8079 21.7619 13.5493 21.5406C13.2908 21.3194 12.9018 21.3495 12.6805 21.608L0.400142 35.9536C0.0136315 36.4052 0.0381653 37.0379 0.458461 37.4582C0.879914 37.8797 1.51292 37.9019 1.96304 37.5165L17.9356 23.8435C20.2329 26.1396 22.7303 28.6354 23.7227 29.6271C22.6915 30.6584 20.4059 33.1464 20.4059 34.9384C20.4059 37.2516 22.2878 39.1336 24.6011 39.1336C26.9143 39.1336 28.7963 37.2516 28.7963 34.9384C28.7963 33.1462 26.5105 30.6581 25.4794 29.6269L26.1534 28.9528C26.9797 28.1265 27.4348 27.0279 27.4348 25.8593C27.4348 24.6907 26.9797 23.592 26.1534 22.7657L25.3717 21.9841C25.1311 21.7435 24.741 21.7435 24.5003 21.9841C24.2597 22.2247 24.2597 22.6149 24.5003 22.8555L25.2819 23.6371C25.8756 24.2307 26.2024 25.0199 26.2024 25.8593C26.2024 26.6986 25.8756 27.4879 25.2819 28.0814L24.6009 28.7625C23.126 27.2886 18.2667 22.4325 15.7505 19.9167L18.7624 16.3983C19.985 14.9702 21.073 13.3722 21.9962 11.6484C22.8917 9.97649 23.9512 8.34471 24.8308 7.16138C25.4169 7.50073 25.9626 7.91846 26.4543 8.41013L28.5056 10.4614L27.9543 11.0127C27.6649 11.3022 27.1937 11.3023 26.9042 11.0129C26.8832 10.992 26.8634 10.9697 26.8455 10.947C26.6344 10.68 26.2468 10.6349 25.98 10.8459C25.6254 11.1205 25.7089 11.6211 26.0326 11.8841C26.4176 12.2691 26.9234 12.4617 27.4292 12.4617C27.935 12.4617 28.4408 12.2691 28.8258 11.8841L30.7579 9.95204C31.528 9.18199 31.528 7.92895 30.7579 7.15891C29.9878 6.38886 28.7348 6.38886 27.9647 7.15891L27.4554 7.66825L27.3259 7.53873C26.8004 7.01327 26.2216 6.5606 25.6019 6.18507C25.7585 6.00128 25.9024 5.843 26.0291 5.71629C27.7668 3.97868 30.5646 3.94928 32.266 5.65078C33.0887 6.47345 33.5358 7.57416 33.525 8.74997C33.5141 9.93015 33.0437 11.0445 32.2005 11.8877C31.2948 12.7933 28.8283 14.5494 26.2683 15.9205C24.5445 16.8437 22.9464 17.9317 21.5184 19.1542L19.604 20.7929C19.3455 21.0142 19.3153 21.4032 19.5366 21.6618C19.7587 21.9211 20.1481 21.9496 20.4054 21.7292L22.3198 20.0904C23.6805 18.9257 25.2046 17.8883 26.85 17.007C28.8426 15.9398 30.7017 14.6983 31.9416 13.7307L31.9553 13.7444C32.8182 14.6073 33.9655 15.0826 35.1859 15.0826C36.4062 15.0826 37.5536 14.6073 38.4165 13.7444L42.2395 9.92139C42.4801 9.68077 42.4801 9.29054 42.2394 9.04991ZM28.836 8.03031C29.1256 7.74078 29.5968 7.74078 29.8864 8.03031C30.176 8.31993 30.176 8.79111 29.8864 9.08072L29.377 9.59006L28.3266 8.53974L28.836 8.03031ZM24.6011 37.9013C22.9674 37.9013 21.6382 36.5722 21.6382 34.9384C21.6382 33.8223 23.3127 31.7769 24.6013 30.49C25.8898 31.7758 27.5639 33.8205 27.5639 34.9384C27.5639 36.5722 26.2348 37.9013 24.6011 37.9013ZM20.9098 11.0666C20.0285 12.7121 18.9911 14.2363 17.8262 15.5969L14.893 19.0234C13.6855 17.6083 13.0268 15.8292 13.0268 13.9486C13.0268 9.62972 16.5405 6.11601 20.8594 6.11601H20.9158C21.8817 6.11601 22.8208 6.29006 23.6977 6.62255C22.8219 7.81934 21.8047 9.39578 20.9098 11.0666Z" fill="#ABB0BF"/>
</g>
<defs>
<clipPath id="clip0_208_187">
<rect width="42.2939" height="42.2939" fill="white" transform="translate(0.125973 0.000732422)"/>
</clipPath>
</defs>
</svg>
