<svg width="31" height="31" viewBox="0 0 31 31" fill="none" xmlns="http://www.w3.org/2000/svg">
<rect x="0.80542" y="0.659668" width="29.9442" height="29.9442" rx="14.9721" fill="#ABB0BF"/>
<path d="M18.8551 9.46265C17.6005 9.46265 16.4776 10.0726 15.7775 11.0084C15.0774 10.0726 13.9545 9.46265 12.6999 9.46265C10.5719 9.46265 8.84599 11.1955 8.84599 13.3374C8.84599 14.1622 8.97769 14.9247 9.20643 15.6317C10.3016 19.0975 13.6773 21.17 15.3478 21.7384C15.5834 21.8216 15.9716 21.8216 16.2073 21.7384C17.8778 21.17 21.2534 19.0975 22.3486 15.6317C22.5773 14.9247 22.709 14.1622 22.709 13.3374C22.709 11.1955 20.9831 9.46265 18.8551 9.46265Z" fill="#FBFDFF"/>
</svg>
